<?xml version="1.0" encoding="utf-8"?>
<!-- Generator: Adobe Illustrator 24.1.2, SVG Export Plug-In . SVG Version: 6.00 Build 0)  -->
<svg version="1.1" id="Capa_1" xmlns="http://www.w3.org/2000/svg" xmlns:xlink="http://www.w3.org/1999/xlink" x="0px" y="0px"
	 viewBox="0 0 1280 694" style="enable-background:new 0 0 1280 694;" xml:space="preserve">
<style type="text/css">
	.st0{fill:#0F0F10;}
</style>
<g transform="translate(0.000000,694.000000) scale(0.100000,-0.100000)">
	<path class="st0" d="M10317,6888c-119-118-122-248-3-138c36,33,116,160,116,184c0,3-13,6-30,6C10378,6940,10358,6927,10317,6888z"
		/>
	<path class="st0" d="M12766,6881c-4-7-5-15-2-18c9-9,19,4,14,18C12774,6892,12772,6892,12766,6881z"/>
	<path class="st0" d="M10166,6671c-19-20-21-44-4-39c18,6,40,45,30,52C10187,6687,10175,6681,10166,6671z"/>
	<path class="st0" d="M5490,6628c0-9,5-20,11-23c17-11,20,0,4,21C5492,6643,5491,6643,5490,6628z"/>
	<path class="st0" d="M4596,6579c-14-17-26-34-26-39s-41-55-91-112c-51-57-108-127-127-155c-19-29-41-53-48-53s-19-3-28-6
		c-11-4-16-1-16,10c0,24-13,20-45-14c-16-16-38-30-50-30c-11,0-28-9-38-20c-21-25-2-27,31-4c13,9,29,13,36,11c8-3,22,0,32,7
		c13,9,27,11,42,5c19-7,21-12,12-28c-17-33-12-61,11-61c45,0,180,163,273,330c20,36,50,81,66,100s32,47,35,63c6,24,4,27-18,27
		C4631,6610,4612,6599,4596,6579z"/>
	<path class="st0" d="M7705,6360c-21-23-12-39,13-24c19,12,29,44,14,44C7727,6380,7715,6371,7705,6360z"/>
	<path class="st0" d="M7635,6258c-64-22-108-90-69-105c37-14,138,76,119,107C7678,6272,7674,6272,7635,6258z"/>
	<path class="st0" d="M9832,6228c-14-14-16-38-3-38c5,0,14,7,21,15C9867,6225,9850,6246,9832,6228z"/>
	<path class="st0" d="M4051,6134c-30-38-27-69,5-57c15,6,44,54,44,73S4071,6160,4051,6134z"/>
	<path class="st0" d="M7585,6120c-3-5-1-10,4-10c6,0,11,5,11,10c0,6-2,10-4,10C7593,6130,7588,6126,7585,6120z"/>
	<path class="st0" d="M9424,6055c-19-14-19-14,2-15c12,0,27,7,34,15C9477,6075,9451,6076,9424,6055z"/>
	<path class="st0" d="M3980,6050c0-5,5-10,10-10c6,0,10,5,10,10c0,6-4,10-10,10C3985,6060,3980,6056,3980,6050z"/>
	<path class="st0" d="M12464,6035c-4-9-2-21,4-27c15-15,44-1,40,19C12504,6050,12472,6056,12464,6035z"/>
	<path class="st0" d="M3912,6008c-14-14-16-38-4-38s32,23,32,37C3940,6023,3928,6024,3912,6008z"/>
	<path class="st0" d="M9647,5942c-22-24-21-32,2-32c10,0,22,7,25,16C9688,5963,9674,5972,9647,5942z"/>
	<path class="st0" d="M7306,5904c-13-12-14-20-6-28c13-13,45,4,45,24C7345,5921,7324,5923,7306,5904z"/>
	<path class="st0" d="M6911,5856c-8-9-11-19-7-23c9-9,29,13,24,27C6926,5868,6920,5867,6911,5856z"/>
	<path class="st0" d="M8062,5810c-45-20-63-47-42-60c26-16,110,35,110,67C8130,5835,8113,5833,8062,5810z"/>
	<path class="st0" d="M8160,5682c-25-21-20-45,8-35c22,8,52,34,52,45C8220,5707,8183,5701,8160,5682z"/>
	<path class="st0" d="M9463,5685c-3-9-3-18,0-21c9-9,27,6,27,22C9490,5705,9471,5704,9463,5685z"/>
	<path class="st0" d="M9836,5684c-25-24-19-36,9-18c25,16,33,34,16,34C9856,5700,9844,5693,9836,5684z"/>
	<path class="st0" d="M12040,5640c-8-6-40-17-70-26c-151-45-383-202-482-327c-21-27-38-59-38-71c0-24-106-109-243-195
		c-37-24-66-45-64-48c6-5,171,100,257,163c61,45,68,48,130,49c52,1,77,7,127,33c79,41,179,111,250,175c81,74,195,214,191,235
		C12094,5648,12062,5655,12040,5640z"/>
	<path class="st0" d="M7872,5618c-17-17-15-28,6-28c19,0,42,18,42,32C7920,5634,7885,5631,7872,5618z"/>
	<path class="st0" d="M8205,5620c-3-5-1-10,4-10c6,0,11,5,11,10c0,6-2,10-4,10C8213,5630,8208,5626,8205,5620z"/>
	<path class="st0" d="M9415,5581c-120-56-193-137-269-295c-24-51-68-121-97-156c-30-34-69-82-87-106s-39-44-47-44c-16,0-47-42-43-58
		c6-19-42-71-87-93c-54-27-69-43-61-64c5-14,13-11,51,15c25,17,45,35,45,40c0,15,61,80,75,80c7,0,15-7,19-15c13-36,75-9,219,94
		c212,151,300,241,359,367c50,107,51,265,1,263C9483,5609,9448,5596,9415,5581z"/>
	<path class="st0" d="M5885,5430c-11-4-31-20-44-34c-29-31-17-52,22-42c32,8,87,53,87,72C5950,5441,5917,5444,5885,5430z"/>
	<path class="st0" d="M5715,5408c-72-36-179-101-210-126c-16-14-62-40-101-57c-45-21-102-61-160-111c-50-44-124-107-165-140
		c-169-140-319-307-319-356c0-78,130,21,445,341c292,296,379,368,493,405c54,18,81,41,66,56C5759,5425,5738,5420,5715,5408z"/>
	<path class="st0" d="M8164,5395c-74-16-139-48-219-108c-89-66-127-105-123-125c5-28,40-25,103,9c32,17,94,41,136,54
		c97,28,167,68,175,99c3,13,16,34,30,47C8309,5412,8276,5420,8164,5395z"/>
	<path class="st0" d="M7549,5365c-85-31-147-91-121-117c25-25,196,91,178,121C7597,5382,7595,5382,7549,5365z"/>
	<path class="st0" d="M6805,5292c-51-12-68-35-109-153c-23-65-100-121-331-243c-49-26-106-60-125-74c-72-54-266-252-380-387
		c-157-187-162-191-235-199c-77-9-175-56-209-101c-14-18-29-53-32-77s-11-51-18-60c-22-30-411-308-432-308c-61,0-215-77-276-138
		c-26-25-56-64-67-87c-22-46-55-79-157-151c-42-30-69-44-72-36c-2,7-14,12-27,12c-31,0-105-27-126-46c-9-8-43-22-74-30
		c-32-9-95-35-140-60c-45-24-89-44-98-44s-17-4-17-9c0-16-152-60-395-112c-55-12-122-27-150-34c-55-14-72-7-56,23
		c18,33,337,330,470,436c124,100,229,194,201,180c-41-21-289-217-430-340c-318-278-330-288-352-266c-7,7-25,12-40,12s-28,5-28,11
		c0,19,41,71,135,170c112,121,162,162,350,288c165,110,527,367,594,420c23,18,40,35,38,38c-3,2-67-40-143-95c-77-54-159-113-184-131
		c-73-52-361-241-366-241c-13,0,270,255,371,335c110,87,262,235,337,328c44,54,78,100,75,103c-2,3-69-61-148-141
		c-79-81-184-180-234-221c-49-41-128-106-175-145c-152-126-471-361-645-475c-93-62-208-139-255-172c-47-32-150-94-230-137
		s-170-94-200-113c-30-20-127-69-215-109c-187-86-222-109-276-177c-28-35-55-56-87-69c-64-24-184-49-193-40c-4,5-2,30,4,57
		c8,36,21,59,47,82c77,71,279,234,346,280c39,27,97,69,129,94c31,25,112,87,179,139c122,94,155,122,126,106c-19-11-340-228-447-303
		c-45-31-108-75-140-97s-100-71-151-109c-101-75-129-85-249-86c-84,0-103,6-103,31c0,30,253,284,334,336c38,25,96,67,128,94
		c33,27,78,59,101,71c23,11,71,49,107,83s106,89,155,123c77,51,206,150,369,284c29,24,51,32,85,34c54,4,90,27,114,76
		c55,110-97,131-161,22c-14-25-21-49-18-66c5-23,1-29-20-34c-13-3-30-14-37-24c-6-9-27-25-44-34c-18-9-33-20-33-24
		c0-10-167-138-224-172c-24-14-83-57-132-96c-49-40-110-85-135-100c-25-16-86-59-135-96c-111-84-182-124-196-110
		c-10,10,381,412,1017,1047c121,121,263,265,315,321c94,99,157,144,300,213c25,12,72,39,105,61c33,21,63,39,68,39c4,1,17-10,29-24
		c41-48,87-22,139,79c29,56,32,67,21,90c-22,50-78,27-130-53c-21-32-47-56-75-70c-48-24-139-79-219-132c-29-20-64-41-77-48
		c-20-11-22-11-13,6c6,10,20,27,32,38s45,47,74,80c28,33-8,2-79-70c-118-118-139-135-228-179c-54-27-100-53-104-59c-3-5,33,11,81,35
		c47,25,86,42,86,38c0-11-905-916-1160-1161c-295-283-363-344-427-385c-107-68-308-134-409-134c-106,0-245-55-317-125
		c-21-21-50-61-64-91c-14-29-48-79-75-111l-51-57l7-65c5-63,5-65-30-104c-35-38-36-42-32-98c7-98,58-144,137-123c29,8,42,7,60-4
		c13-9,49-16,84-17c43-1,82-11,127-30c61-26,75-28,205-29c145-1,186,8,288,61c18,9,66,28,107,42c70,24,79,25,140,14
		c159-30,145-23,171-91c18-51,38-56,122-33c77,22,120,21,252-4c39-7,120-19,181-25c119-13,146-8,187,38c10,10,36,27,58,37
		c38,17,53,18,222,7c396-27,1048-61,1167-62l45-1l-40-36l-40-35l51,35l51,36l99-5c54-3,351-9,659-14c308-4,567-11,575-15
		c8-3,24-20,35-37c18-27,26-30,75-32c31-2,85-10,120-18c98-24,181-38,231-38c55-1,33-17-35-26c-33-5-52-2-70,10c-31,20-56,21-56,2
		c0-8-9-17-19-21c-27-8-90-80-107-122c-19-44-11-71,33-109l35-31l-36-22c-19-12-51-41-70-63c-32-37-42-42-123-58
		c-202-42-414-54-473-28c-19,9-56,36-82,62c-62,62-114,63-144,4c-19-36-12-70,22-115c19-25,36-34,81-43c59-13,91-9,213,25
		c30,9,109,27,175,40c66,14,151,32,189,40s71,13,73,11c13-12-291-140-512-216c-568-194-1155-332-1571-370c-66-6-197-26-290-45
		s-182-35-199-35c-16,0-37-5-45-11c-11-8,0-9,40-5c30,3,111,11,180,16c138,11,193,20,355,55c61,13,203,40,317,59
		c369,63,508,95,853,193c189,53,622,196,749,247c49,19,94,33,99,29c6-3,16,2,23,12c9,13,34,20,87,25c91,9,166,42,234,103
		c69,61,290,166,325,155c9-3,11-30,9-92c-3-92,5-116,41-116c25,0,63,27,163,115c66,58,90,73,136,84c54,13,58,13,87-9
		c30-22,35-23,87-11c35,8,80,10,120,6c52-6,74-3,117,13c63,24,192,42,304,42c76,0,110,5,344,49c279,52,497,157,655,315
		c33,33,116,98,185,145c168,114,422,282,457,302c112,66,413,259,413,266c0,3-15-4-32-15c-18-11-78-45-133-77s-116-69-136-82
		c-19-12-38-23-42-23c-3,0-30-14-59-31c-29-18-59-32-65-32c-7,0-13-4-13-9s-17-16-37-26c-21-9-40-20-43-23c-16-19-201-109-224-109
		c-58,0-19,34,139,119c250,135,476,279,735,470c63,46,131,96,150,109c52,38,294,224,305,236c20,20-53-29-145-99
		c-594-446-1078-725-1257-725c-53,0-42,31,36,105c94,90,163,144,348,274c87,61,183,131,213,156c30,24,83,66,117,92
		c34,27,60,49,58,51c-10,11-231-115-344-197c-384-276-363-262-401-259c-67,6-48,53,69,173c37,38,85,73,128,94c37,19,102,57,143,84
		c141,94,320,221,316,224c-6,6-106-46-156-81c-41-29-255-158-307-185c-33-17-41-14-48,20c-6,26-2,36,26,66c19,19,60,48,92,65
		c31,17,57,36,57,42s-16,22-35,35s-35,27-35,32c0,20,186,142,350,231c64,34,100,47,145,51c83,8,160,50,203,110c62,86,54,177-20,223
		c-21,13-38,28-38,33c0,7,64,69,350,336c91,84,282,256,393,353c37,31,117,104,179,160c101,93,113,101,116,80c5-40,24-78,44-89
		c38-20,139,17,248,90c25,17,54,31,64,31c11,0,46,20,77,45c32,25,75,53,96,63c21,9,65,36,98,58s92,59,130,82c39,22,79,48,90,57
		c25,21-7,3-195-110l-145-86l71,73c93,96,145,175,151,231c5,38,2,46-21,64c-141,111-544-106-672-361c-18-38-34-76-34-85
		c0-15-267-262-308-285c-9-5,0,11,20,35c64,78,58,122-17,139c-56,13-98,4-190-43c-97-51-206-150-237-216c-17-38-43-64-130-132
		c-60-46-126-92-146-103c-20-10-64-44-97-75c-34-31-101-90-150-131c-48-41-125-109-170-150c-188-173-309-276-343-294
		c-20-10-81-48-135-82c-54-35-101-64-104-64s-35-22-72-48c-194-141-319-212-373-212c-18,0-33,8-44,25c-14,22-15,30-3,58
		c7,17,20,43,29,57c10,14,34,50,54,81c43,65,128,151,208,211c32,24,90,69,131,101c48,37,166,105,343,196c683,351,654,334,827,488
		c151,133,178,191,147,305c-14,48-40,62-101,55c-150-18-357-181-574-449c-75-93-105-146-105-182c0-31-36-55-270-181
		c-247-132-312-178-467-329c-51-49-95-87-98-85c-16,16,48,222,102,329c18,35,31,66,29,67c-3,4-52-77-84-137c-7-14-21-36-31-49
		c-15-20-20-22-38-11s-25,9-56-14c-29-22-39-25-56-17c-11,6-27,11-36,11c-17,0-162-139-158-151c1-3-18-30-43-59c-26-31-43-59-40-67
		c8-19-39-69-86-94c-21-11-38-16-38-13c0,4,36,46,80,95c44,48,80,90,80,94s10,15,23,26c12,10,17,18,11,19c-6,0-17-6-23-14
		c-13-16-130-70-137-63c-3,2,57,56,133,118s154,128,173,145c97,88,112,94,81,34c-9-18-2-14,25,15c21,22,52,47,68,55
		c24,12,32,24,37,56c7,37,30,64,236,270c220,220,206,212-37-21c-63-60-105-99-95-86c15,17,20,40,21,85c1,33,7,87,13,120
		c7,32,9,61,6,64c-11,12-48-96-49-145c-1-40-5-53-18-56c-19-5-78-103-78-129c0-10,7-18,17-18c14,0,14-3-5-20c-12-11-28-20-37-20
		c-8,0-30-21-49-47c-35-49-84-95-266-248c-58-49-128-110-157-137c-45-41-58-48-93-48c-79,0-299-87-390-154c-19-15-141-131-270-259
		l-235-232l-130-70c-183-98-233-121-301-140c-64-19-232-83-304-117c-81-37-115-40-211-14c-21,6-34,1-61-22c-64-57-340-110-687-132
		c-85-5-177-13-205-16l-51-7l85,80c157,148,189,172,263,194c103,31,147,88,150,194c1,54-19,100-49,112c-26,10-74-19-103-61
		c-16-23-41-77-57-120c-33-94-82-161-203-279c-83-82-93-88-121-82s-35,0-31-27c2-12-32-24-69-23c-23,0-35,5-35,14c0,8-6,16-14,19
		c-9,3-11-1-7-16c6-17,1-21-31-26c-95-16-424-27-957-33c-466-5-580-3-586,7c-13,21,8,64,49,104c35,34,41,36,60,24c17-10,25-10,41,0
		c11,6,41,13,67,14l48,1l-55,6l-55,6l50,29c28,16,127,78,221,138c141,89,187,112,258,133c120,35,189,65,306,135c54,33,121,70,147,84
		c26,13,68,42,93,64c73,64,327,199,611,325c30,13,84,47,118,75c34,27,90,65,123,82c59,32,61,32,94,16c21-9,34-23,34-35
		c0-34,25-44,103-39c119,9,366,104,514,200c37,25,101,73,141,109c63,55,73,68,68,90c-5,24,2,31,72,72c131,76,195,105,280,122
		c18,4,55,22,83,41c46,31,105,54,138,54c7,0,28,15,46,34c24,26,57,43,126,67c159,55,225,84,275,124c71,57,74,61,23,31
		c-25-14-57-26-70-26c-34,0-264-67-310-91c-21-10-50-19-64-19c-36,0-79-24-99-55s-88-64-130-65c-17,0-39-9-50-20c-12-10-39-26-61-36
		c-34-14-37-14-26,0c16,19,6,36-20,36c-39,0-18,29,36,49c112,42,215,102,320,186c22,18,59,42,82,54c42,21,58,46,47,74
		c-9,25-32,28-92,13c-32-8-90-18-129-22c-110-10-108,4,19,134c58,59,111,117,117,130c19,35-2,54-58,52c-75-3-74-3-51,30
		c33,46,16,53-49,20c-52-26-111-79-111-99c0-5-26-24-57-44c-76-47-106-79-105-114c4-74,8-97,20-100c6-3,12-14,12-26c1-12,7-33,15-47
		c23-41,18-59-36-112c-27-28-53-64-56-80c-4-21-19-36-62-60c-31-18-96-59-146-91c-49-32-115-72-145-88c-30-17-68-38-85-47
		c-16-9-66-37-110-61s-92-54-107-66c-18-15-51-26-104-34c-99-15-116-3-61,41c28,23,37,37,37,60c0,17-7,36-16,42c-13,10,9,29,143,118
		c191,128,210,138,265,138c99,1,208,91,208,172c0,21,6,53,14,71c13,30,423,454,491,507c75,60,164,114,333,204
		c158,84,195,100,265,112c88,15,117,30,144,70C7003,5202,6910,5317,6805,5292z M9875,4311c-60-53-309-271-415-362
		c-74-64-188-166-253-228c-65-61-141-128-170-150c-74-55-198-187-235-252c-38-68-55-81-317-254c-115-77-254-170-308-207
		c-75-52-107-68-133-68s-34,4-34,18c0,27,37,58,215,177c272,184,321,220,303,223c-22,4-90-31-165-87c-117-86-288-178-375-201
		c-48-13-75,3-64,38c8,24,106,111,151,135c17,9,46,32,65,52s55,48,80,63c25,14,56,36,71,49c18,16,38,23,70,24s58,11,96,35
		c28,18,66,37,85,42c36,9,49,41,28,67c-16,19-11,25,67,77c38,26,89,68,113,95c100,106,371,331,457,378c26,14,65,44,85,66
		c20,21,83,69,138,105c101,66,102,67,178,69c85,2,139,20,217,71C9875,4319,9892,4327,9875,4311z M8980,3430c0-5-10-19-22-30
		c-27-25-38-8-12,21C8964,3441,8980,3446,8980,3430z M7884,3393c-6-38-38-82-49-71c-6,6,43,108,52,108
		C7889,3430,7888,3413,7884,3393z M3400,3383c-1-13-51-46-58-38c-4,3,4,15,18,25C3386,3391,3400,3395,3400,3383z M4700,3375
		c19-10,21-15,10-19c-108-39-310-102-310-97c1,11,125,91,143,91c9,0,17,4,17,8c0,12,50,30,85,31C4662,3389,4686,3383,4700,3375z
		 M8480,3351c0-12-79-65-86-58c-9,9,6,27,40,48S8480,3365,8480,3351z M4538,3264c-31-16-38-30-11-19c12,4,9-3-9-22
		c-41-42-181-124-238-139c-27-7-69-26-92-41c-75-50-188-90-188-67c1,15,157,114,179,114c11,0,28,11,37,25c12,19,22,23,40,19
		c33-9,92,32,102,70c7,25,15,31,57,42c28,6,61,16,75,22s36,11,50,11h25L4538,3264z M4140,3116c0-21-223-172-320-218
		c-74-35-203-68-216-56c-9,10,225,122,288,138c53,14,81,29,125,67C4112,3128,4140,3144,4140,3116z M8570,3015c0-19-89-118-154-170
		c-27-22-79-68-116-102c-72-65-113-90-198-118c-62-20-82-15-82,20c0,20,14,34,73,72c39,26,108,70,152,99c44,28,91,57,104,64
		s65,43,115,81s94,69,99,69C8567,3030,8570,3023,8570,3015z M3700,2931c0-10-58-36-66-29c-3,3,2,13,11,22
		C3662,2941,3700,2946,3700,2931z M3430,2890c0-10-92-40-124-40c-33,0-4,20,50,35C3417,2902,3430,2903,3430,2890z M3208,2485
		c-18-19-344-215-351-212c-16,5,143,127,198,152c53,25,147,64,154,65C3211,2490,3211,2488,3208,2485z M5936,1619c4-8,26-10,60-6
		c41,4,54,2,54-7c0-8-6-18-12-23c-17-13-264-143-272-143c-11,0-6,66,7,83c12,17,136,105,149,106C5926,1630,5932,1625,5936,1619z"/>
	<path class="st0" d="M4250,3100c0-5,5-10,10-10c6,0,10,5,10,10c0,6-4,10-10,10C4255,3110,4250,3106,4250,3100z"/>
	<path class="st0" d="M7114,5280c-42-19-88-66-78-81c13-21,55-6,103,37c28,25,51,50,51,55C7190,5305,7159,5301,7114,5280z"/>
	<path class="st0" d="M12767,5242c-23-25-21-34,6-30c14,2,23,11,25,26C12802,5265,12789,5266,12767,5242z"/>
	<path class="st0" d="M12707,5169c-17-10-24-39-9-39c14,0,44,38,35,43C12728,5176,12717,5174,12707,5169z"/>
	<path class="st0" d="M5782,5143c-4-10-29-46-55-80c-39-49-56-62-85-68c-44-8-96-38-117-68c-8-12-15-40-15-63c0-37-6-46-55-93
		c-57-54-75-58-75-16c0,13-12,38-26,55c-22,26-25,35-16,54c16,35,71,95,103,112c16,8,36,28,45,45c15,29,14,33,0,48
		c-15,14-19,14-44,1c-15-9-43-37-61-62c-19-26-59-62-89-80c-198-121-342-242-342-287c0-51,73-33,193,48c81,54,114,67,152,57
		c54-14,53-72-2-139c-13-16-23-36-23-45c0-22-147-161-190-179c-19-9-38-20-42-26c-8-14,9-37,28-37c18,0,46,30,40,45
		c-5,13,25,43,113,115l54,44l-7-39c-4-21-14-48-22-59s-14-39-14-63c0-31-7-49-25-69c-16-17-23-34-20-45c4-10,1-29-5-41
		c-9-21-9-21,2-4c7,11,26,32,42,47c22,21,27,31,19,41c-20,25,20,116,75,170c45,44,50,54,54,103c3,41,14,67,43,112
		c60,89,115,143,146,143c62,0,136,42,170,96c26,43,24,63-11,77l-29,13l44,56c35,45,51,57,77,60c41,4,45,32,5,36
		C5798,5160,5788,5156,5782,5143z"/>
	<path class="st0" d="M8480,5120c0-5,5-10,11-10c5,0,7,5,4,10c-3,6-8,10-11,10C8482,5130,8480,5126,8480,5120z"/>
	<path class="st0" d="M12579,5066c-39-29-59-53-59-72c0-2,12-4,27-4c18,0,38,13,65,42C12677,5103,12657,5123,12579,5066z"/>
	<path class="st0" d="M8535,5060c-3-5-2-10,4-10c5,0,13,5,16,10c3,6,2,10-4,10C8546,5070,8538,5066,8535,5060z"/>
	<path class="st0" d="M2813,4909c-27-10-43-39-43-76c0-21-13-41-47-75c-27-25-58-51-70-57c-13-7-23-17-23-23c0-7-17-30-37-53l-38-40
		l40,38c23,20,45,37,49,37c5,0,35,29,68,65c56,61,62,65,104,65c38,0,50,6,79,35c19,19,35,39,35,44c0,9-41,31-80,44
		C2842,4915,2825,4914,2813,4909z"/>
	<path class="st0" d="M8475,4900c-3-5-14-10-23-10c-28,0-97-52-187-139l-85-83l11-42c9-37,7-49-14-98c-27-61-41-72-101-81
		c-51-8-138-51-153-76c-9-15-9-23,2-37c29-40,164-10,262,58c43,29,45,33,39,67c-3,20,1,56,8,81c12,41,17,46,52,53
		c94,19,115,29,173,84c51,47,61,62,61,89s6,36,30,49c32,16,32,35,1,35c-11,0-24,12-31,30C8508,4910,8487,4919,8475,4900z"/>
	<path class="st0" d="M7160,4679c0-5,5-7,10-4c6,3,10,8,10,11c0,2-4,4-10,4C7165,4690,7160,4685,7160,4679z"/>
	<path class="st0" d="M12208,4649c-24-14-23-39,2-39c20,0,44,32,33,44C12235,4662,12228,4661,12208,4649z"/>
	<path class="st0" d="M7890,4589c0-5,5-7,10-4c6,3,10,8,10,11c0,2-4,4-10,4C7895,4600,7890,4595,7890,4589z"/>
	<path class="st0" d="M2507,4552c-20-15-51-44-68-65s-48-46-69-57c-46-23-56-38-41-53c9-9,23,1,59,41c26,29,59,61,73,70
		c23,15,97,93,88,92C2547,4579,2528,4567,2507,4552z"/>
	<path class="st0" d="M8441,4536c-12-14-5-26,16-26c15,0,18,26,4,34C8456,4547,8447,4544,8441,4536z"/>
	<path class="st0" d="M8564,4468l-19-23l23,19c12,11,22,21,22,23C8590,4495,8582,4489,8564,4468z"/>
	<path class="st0" d="M7685,4470c-3-6,1-7,9-4c18,7,21,14,7,14C7695,4480,7688,4476,7685,4470z"/>
	<path class="st0" d="M8520,4460c0-5,5-10,10-10c6,0,10,5,10,10c0,6-4,10-10,10C8525,4470,8520,4466,8520,4460z"/>
	<path class="st0" d="M8514,4408l-29-33l33,29c17,17,32,31,32,33C8550,4445,8542,4438,8514,4408z"/>
	<path class="st0" d="M7625,4420c-3-5,1-10,9-10c9,0,16,5,16,10c0,6-4,10-9,10C7635,4430,7628,4426,7625,4420z"/>
	<path class="st0" d="M11917,4383c-15-15-6-33,17-33s41,22,29,34C11955,4392,11925,4392,11917,4383z"/>
	<path class="st0" d="M8435,4318l-40-43l43,40c23,21,42,40,42,42C8480,4365,8471,4357,8435,4318z"/>
	<path class="st0" d="M6980,4341c-48-15-90-42-90-58c0-23,62-11,112,22C7055,4340,7043,4360,6980,4341z"/>
	<path class="st0" d="M2265,4330c3-5,8-10,11-10c2,0,4,5,4,10c0,6-5,10-11,10C2264,4340,2262,4336,2265,4330z"/>
	<path class="st0" d="M2757,4314c-14-14-7-35,11-32c9,2,17,10,17,17C2785,4315,2767,4324,2757,4314z"/>
	<path class="st0" d="M7823,4300c-29-12-29-26,0-32c16-3,28,3,40,19c17,22,17,23,0,22C7853,4309,7835,4305,7823,4300z"/>
	<path class="st0" d="M7670,4290c0-5,4-10,9-10c6,0,13,5,16,10c3,6-1,10-9,10C7677,4300,7670,4296,7670,4290z"/>
	<path class="st0" d="M8086,4267c-22-51-15-71,8-23c9,20,15,42,13,49C8104,4300,8095,4288,8086,4267z"/>
	<path class="st0" d="M4940,4259c0-5,5-7,10-4c6,3,10,8,10,11c0,2-4,4-10,4C4945,4270,4940,4265,4940,4259z"/>
	<path class="st0" d="M4895,4230c-3-5-1-10,4-10c6,0,11,5,11,10c0,6-2,10-4,10C4903,4240,4898,4236,4895,4230z"/>
	<path class="st0" d="M4845,4201c-6-11,9-23,19-14c9,9,7,23-3,23C4855,4210,4849,4206,4845,4201z"/>
	<path class="st0" d="M5855,4176c-40-17-62-43-47-58s55-3,91,28C5947,4186,5920,4204,5855,4176z"/>
	<path class="st0" d="M5143,4163c-18-6-16-33,1-33c19,0,31,19,20,30C5159,4164,5149,4165,5143,4163z"/>
	<path class="st0" d="M11700,4110c0-5,5-10,10-10c6,0,10,5,10,10c0,6-4,10-10,10C11705,4120,11700,4116,11700,4110z"/>
	<path class="st0" d="M5125,4100c-3-5-1-10,4-10c6,0,11,5,11,10c0,6-2,10-4,10C5133,4110,5128,4106,5125,4100z"/>
	<path class="st0" d="M7480,4100c-8-5-12-12-8-15c10-10,49,5,43,16C7507,4112,7499,4112,7480,4100z"/>
	<path class="st0" d="M7952,4049c2-6,8-10,13-10s11,4,13,10s-4,11-13,11S7950,4055,7952,4049z"/>
	<path class="st0" d="M1864,3985c-10-25,10-39,36-25s22,34-8,38C1879,4000,1867,3995,1864,3985z"/>
	<path class="st0" d="M1826,3983c-11-11-6-23,9-23c8,0,15,4,15,9C1850,3982,1834,3991,1826,3983z"/>
	<path class="st0" d="M4514,3969c-3-6,1-18,10-27c15-15,17-15,32,0c19,19,11,38-16,38C4530,3980,4518,3975,4514,3969z"/>
	<path class="st0" d="M7247,3957c-18-12-18-14-2-27c15-12,21-12,43,0c14,8,25,20,24,25C7310,3971,7267,3972,7247,3957z"/>
	<path class="st0" d="M6539,3927c-19-12-35-30-37-40c-6-28,41-21,71,11C6622,3949,6600,3968,6539,3927z"/>
	<path class="st0" d="M3186,3908c-9-12-16-26-16-31c0-13,29,12,41,35C3225,3938,3205,3935,3186,3908z"/>
	<path class="st0" d="M4984,3899c-10-17,13-36,27-22c12,12,4,33-11,33C4995,3910,4988,3905,4984,3899z"/>
	<path class="st0" d="M1625,3883c-21-21-14-38,16-38c17,0,25,6,27,21C1672,3893,1645,3904,1625,3883z"/>
	<path class="st0" d="M5450,3868c-58-13-122-56-134-91c-16-43,1-49,69-24c109,41,163,81,152,112C5530,3882,5515,3882,5450,3868z"/>
	<path class="st0" d="M6910,3820c0-5,5-10,10-10c6,0,10,5,10,10c0,6-4,10-10,10C6915,3830,6910,3826,6910,3820z"/>
	<path class="st0" d="M3097,3783c-4-3-7-11-7-17s5-5,12,2c6,6,9,14,7,17C3106,3788,3100,3787,3097,3783z"/>
	<path class="st0" d="M4113,3703c-7-3-13-13-13-24c0-23,35-26,43-5C4150,3691,4130,3709,4113,3703z"/>
	<path class="st0" d="M6572,3659c2-6,8-10,13-10s11,4,13,10s-4,11-13,11S6570,3665,6572,3659z"/>
	<path class="st0" d="M6420,3600c0-5,7-10,15-10s15,5,15,10c0,6-7,10-15,10S6420,3606,6420,3600z"/>
	<path class="st0" d="M9775,3594c-77-19-130-51-187-112c-105-112-57-173,95-123c88,29,127,31,140,6c6-11,19-32,29-47
		c21-31,24-117,7-151c-6-12-22-33-34-47s-25-43-28-65c-7-44-77-152-96-147c-6,1-14-5-18-14c-3-9-14-26-25-38c-10-11-50-58-89-104
		c-39-45-86-94-106-110c-20-15-43-36-52-47c-42-52-137-136-174-153c-23-11-52-34-64-50c-14-19-33-32-50-34s-29-10-31-20
		c-5-26,21-22,48,6c14,16,36,26,59,28c28,2,39,9,49,30c17,36,106,113,160,139c27,13,53,37,69,62c28,44,64,81,105,107
		c56,34,138,119,138,142c0,30,88,138,141,173c40,26,41,28,36,70c-5,36-2,49,26,90c49,74,106,167,117,193c12,28,4,66-17,84
		c-8,7-25,35-37,63c-13,27-30,56-40,64C9922,3609,9844,3612,9775,3594z"/>
	<path class="st0" d="M6470,3574c0-9,7-14,17-12c25,5,28,28,4,28C6479,3590,6470,3584,6470,3574z"/>
	<path class="st0" d="M335,3550c3-5,10-10,16-10c5,0,9,5,9,10c0,6-7,10-16,10C336,3560,332,3556,335,3550z"/>
	<path class="st0" d="M10970,3510c0-5,5-10,10-10c6,0,10,5,10,10c0,6-4,10-10,10C10975,3520,10970,3516,10970,3510z"/>
	<path class="st0" d="M5883,3463c-7-3-13-14-13-25c0-14,6-19,22-16c13,2,24,10,26,19C5921,3459,5903,3470,5883,3463z"/>
	<path class="st0" d="M12695,3440c-3-5-1-10,4-10c6,0,11,5,11,10c0,6-2,10-4,10C12703,3450,12698,3446,12695,3440z"/>
	<path class="st0" d="M3335,3249c-10-15,1-23,20-15c9,3,13,10,10,16C3357,3263,3343,3263,3335,3249z"/>
	<path class="st0" d="M5752,3244c-23-16-27-52-13-104c6-22,11-24,51-22c33,2,51,10,68,28c29,32,28,59-3,89
		C5827,3264,5785,3267,5752,3244z"/>
	<path class="st0" d="M5370,3160c0-5,5-10,10-10c6,0,10,5,10,10c0,6-4,10-10,10C5375,3170,5370,3166,5370,3160z"/>
	<path class="st0" d="M11109,3107c-78-40-132-110-150-196c-15-70-37-114-84-168c-49-57-207-189-308-257c-45-30-131-93-191-139
		c-64-50-161-113-235-152c-73-39-170-102-231-149c-176-139-258-185-460-261c-69-26-152-62-185-79c-33-18-81-36-108-39
		c-26-4-65-16-87-27c-21-11-49-20-60-20c-25,0-80-51-80-74c0-9-18-24-42-35c-75-33-316-131-323-131c-5,0-41-16-81-35s-87-35-106-35
		c-34,0-121-45-206-107c-23-17-62-35-85-38c-52-9-68-17-133-66c-62-48-104-65-184-78c-46-8-74-19-102-41c-56-45-102-62-198-69
		c-47-4-98-15-115-24c-90-49-146-70-297-112c-313-86-629-145-783-146c-109-1-175,12-303,62c-119,46-219,60-338,48c-69-7-122-7-174,0
		c-94,14-162,11-168-8c-4-11,3-12,31-7c21,4,38,2,42-4c3-5,20-10,36-10c32,0,69-16,81-34c4-6,8-23,8-37c0-39,69-112,132-140
		c48-21,67-23,193-23c81,1,207,10,300,22c88,12,213,26,277,32c139,12,320,50,415,86c127,47,328,113,396,129c37,9,96,15,130,13
		c72-2,88,5,162,72c64,58,119,78,174,64c47-13,72-4,124,42c50,46,118,78,129,61c6-9,8-9,8,0c0,7,16,15,35,18s50,7,69,10
		c23,4,50,21,79,50c25,24,58,47,74,51c163,37,189,48,231,102c17,21,50,47,74,57c24,11,62,32,86,48c50,33,214,112,254,122
		c20,5,27,3,31-12c4-14,5-13,6,5c1,14,10,26,27,32c23,9,31,6,69-29c83-76,171-76,239-1c30,34,36,47,36,86c0,80,3,83,200,154
		c58,21,177,66,265,100s211,75,273,91c147,38,209,70,312,164c55,50,113,91,165,117c149,75,220,121,310,202c84,76,218,180,325,253
		c25,17,95,52,156,77c176,74,228,132,229,257c0,56-4,70-27,101c-43,56-117,88-204,88C11182,3140,11163,3135,11109,3107z"/>
	<path class="st0" d="M1980,3094c0-9,7-14,17-12c25,5,28,28,4,28C1989,3110,1980,3104,1980,3094z"/>
	<path class="st0" d="M5353,3024c-7-18,11-39,26-30c17,11,13,46-4,46C5366,3040,5357,3033,5353,3024z"/>
	<path class="st0" d="M10380,2999c0-14,5-19,17-17c26,5,29,38,4,38C10386,3020,10380,3014,10380,2999z"/>
	<path class="st0" d="M9976,2939c-59-46-9-138,61-113c56,19,68,99,18,122C10019,2965,10007,2963,9976,2939z"/>
	<path class="st0" d="M5290,2850c0-5,5-10,10-10c6,0,10,5,10,10c0,6-4,10-10,10C5295,2860,5290,2856,5290,2850z"/>
	<path class="st0" d="M5123,2824c-3-8-1-20,5-26c16-16,42-2,42,22S5132,2848,5123,2824z"/>
	<path class="st0" d="M1945,2742c-96-65-145-105-145-118c0-8,3-14,6-14c13,0,92,61,97,75c4,8,15,15,25,15c22,0,62,35,62,55
		C1990,2774,1992,2775,1945,2742z"/>
	<path class="st0" d="M4320,2595c0-17,2-18,24-9c23,9,20,24-4,24C4329,2610,4320,2603,4320,2595z"/>
	<path class="st0" d="M8456,2601c-3-5,1-14,9-21c12-10,15-10,15,3C8480,2602,8464,2614,8456,2601z"/>
	<path class="st0" d="M4667,2543c-12-11-8-23,8-23c8,0,15,7,15,15C4690,2551,4678,2555,4667,2543z"/>
	<path class="st0" d="M3280,2474c0-9,5-14,12-12c18,6,21,28,4,28C3287,2490,3280,2483,3280,2474z"/>
	<path class="st0" d="M9552,2474c4-21,22-23,26-1c2,10-3,17-13,17S9550,2484,9552,2474z"/>
	<path class="st0" d="M4231,2387c-6-6-11-17-11-25c0-19,44-11,48,9S4246,2402,4231,2387z"/>
	<path class="st0" d="M4830,2390c0-5,5-10,10-10c6,0,10,5,10,10c0,6-4,10-10,10C4835,2400,4830,2396,4830,2390z"/>
	<path class="st0" d="M9510,2380c0-5,5-10,10-10c6,0,10,5,10,10c0,6-4,10-10,10C9515,2390,9510,2386,9510,2380z"/>
	<path class="st0" d="M9590,2359c0-5,5-7,10-4c6,3,10,8,10,11c0,2-4,4-10,4C9595,2370,9590,2365,9590,2359z"/>
	<path class="st0" d="M3122,2348c-14-14-16-38-4-38s32,23,32,37C3150,2363,3138,2364,3122,2348z"/>
	<path class="st0" d="M4431,2311c-17-11-5-31,19-31s36,20,19,31c-8,5-16,9-19,9S4439,2316,4431,2311z"/>
	<path class="st0" d="M8900,2275c0-8,5-15,10-15c6,0,10,7,10,15s-4,15-10,15C8905,2290,8900,2283,8900,2275z"/>
	<path class="st0" d="M3088,2269c-35-20-8-67,32-54c22,7,27,34,8,53C3114,2282,3110,2282,3088,2269z"/>
	<path class="st0" d="M4063,2264c-6-16,11-34,33-34c17,0,37,27,29,40C4115,2286,4070,2282,4063,2264z"/>
	<path class="st0" d="M8785,2261c-6-11,9-23,19-14c9,9,7,23-3,23C8795,2270,8789,2266,8785,2261z"/>
	<path class="st0" d="M9457,2264c-9-10,2-24,19-24c8,0,14,7,14,15C9490,2270,9469,2276,9457,2264z"/>
	<path class="st0" d="M2998,2243c7-3,16-2,19,1c4,3-2,6-13,5C2993,2249,2990,2246,2998,2243z"/>
	<path class="st0" d="M4255,2190c-3-5,1-10,10-10s13,5,10,10c-3,6-8,10-10,10S4258,2196,4255,2190z"/>
	<path class="st0" d="M9253,2040c-65-39-87-116-43-152c29-23,57-23,97,2c40,24,62,57,70,105c5,30,2,41-12,51
		C9338,2066,9290,2063,9253,2040z"/>
	<path class="st0" d="M3856,1751c-3-4-22-11-42-14c-43-7-64-23-64-49c0-42,69-35,89,9c7,16,17,36,22,46
		C3870,1760,3866,1767,3856,1751z"/>
	<path class="st0" d="M4787,1713c-4-3-7-12-7-20c0-17,26-17,33,1C4821,1715,4802,1729,4787,1713z"/>
	<path class="st0" d="M467,1632c-20-22-22-52-4-52c19,0,60,47,52,59C505,1655,485,1652,467,1632z"/>
	<path class="st0" d="M5013,1612c-46-19-64-32-42-31c20,0,117,47,99,48C5062,1629,5036,1621,5013,1612z"/>
	<path class="st0" d="M2333,1561c-129-71-261-197-319-304c-29-53-78-112-188-227c-188-196-255-273-286-332l-24-47l24-27
		c24-25,28-26,105-20c44,3,105,9,136,12l57,6l24-48c29-59,62-75,111-55c62,25,66,25,76-2c15-39,41-47,143-47c125,1,210,37,178,75
		c-20,24-89,38-180,37c-69-1-90,2-109,17c-14,11-22,25-18,34c5,14,114,57,145,57c7,0,29,12,48,26c27,21,41,25,68,20
		c38-7,69,14,64,43c-5,27-48,26-72-3c-12-14-46-34-76-44c-30-11-79-29-107-41l-53-21v30c0,24-5,31-27,36c-21,6-30,2-41-14
		c-11-17-24-22-57-22c-35,0-49-6-71-29c-31-33-59-40-180-46c-74-4-87-2-104,15c-32,32-24,66,29,137c67,89,301,297,369,328
		c234,107,515,384,472,465C2454,1600,2397,1596,2333,1561z"/>
	<path class="st0" d="M3545,1539c-10-15,3-25,16-12c7,7,7,13,1,17C3556,1547,3548,1545,3545,1539z"/>
	<path class="st0" d="M1694,1465c-7-18,3-35,21-35c16,0,38,34,28,44C1731,1485,1699,1480,1694,1465z"/>
	<path class="st0" d="M3430,1435c-14-17-5-35,19-35c22,0,45,25,36,40S3444,1452,3430,1435z"/>
	<path class="st0" d="M1507,1433c-14-13-6-33,12-33c19,0,35,23,24,34C1535,1442,1515,1442,1507,1433z"/>
	<path class="st0" d="M1430,1405c0-8,5-15,10-15c6,0,10,7,10,15s-4,15-10,15C1435,1420,1430,1413,1430,1405z"/>
	<path class="st0" d="M1290,1350c-9-6-10-10-3-10c6,0,15,5,18,10C1313,1362,1309,1362,1290,1350z"/>
	<path class="st0" d="M4057,1246c-79-22-133-74-92-90c10-4,34,7,62,27c24,17,61,42,81,54C4151,1263,4133,1266,4057,1246z"/>
	<path class="st0" d="M3031,1176c-9-10-8-16,3-25c10-9,16-8,25,3c9,10,8,16-3,25C3046,1188,3040,1187,3031,1176z"/>
	<path class="st0" d="M769,1042c-53-35-84-68-71-76c23-14,162,68,162,96C860,1079,812,1069,769,1042z"/>
	<path class="st0" d="M2697,974c-9-10,2-24,19-24c8,0,14,7,14,15C2730,980,2709,986,2697,974z"/>
	<path class="st0" d="M585,920c-3-5-2-10,4-10c5,0,13,5,16,10c3,6,2,10-4,10C596,930,588,926,585,920z"/>
	<path class="st0" d="M2455,831c-6-11,9-23,19-14c9,9,7,23-3,23C2465,840,2459,836,2455,831z"/>
	<path class="st0" d="M2050,789c0-5,5-7,10-4c6,3,10,8,10,11c0,2-4,4-10,4C2055,800,2050,795,2050,789z"/>
	<path class="st0" d="M554,745c-8-21,3-34,26-28c27,7,27,43,0,43C569,760,557,753,554,745z"/>
	<path class="st0" d="M770,749c0-5,5-7,10-4c6,3,10,8,10,11c0,2-4,4-10,4C775,760,770,755,770,749z"/>
	<path class="st0" d="M5220,725c-11-13-8-15,13-15c30,0,44,15,21,24C5233,742,5234,742,5220,725z"/>
	<path class="st0" d="M168,598c-26-7-56-30-102-80c-36-38-66-71-66-72c0-2,37,10,82,25c45,16,83,29,85,29s21,16,43,36
		c33,30,38,39,29,55C228,612,222,613,168,598z"/>
</g>
</svg>
